<svg xmlns="http://www.w3.org/2000/svg" width="24" height="24"><path d="M16.713 9.87c-.103-3.382-.495-6.58-1.192-8.399C14.567.491 11.467 0 8.367 0 5.27 0 2.174.49 1.219 1.471.398 3.615 0 7.675 0 11.694c0 4.314.459 8.581 1.346 10.374C2.493 23.355 5.433 24 8.373 24c2.938 0 5.875-.644 7.022-1.932.29-.587.535-1.439.732-2.471.318-1.658.207-2.896 2.874-2.896v-3.6c-2.418 0-2.224-1.1-2.288-3.231zM3.429 20.628c-.596-2.462-1.506-9.642-.293-15.547.67.141 1.364.247 1.981.3-.846 5.634-.743 10.673.366 15.869-1.087-.137-2.054-.622-2.054-.622zm8.83-17.16c-.6.121-.847.532-.838 1.058.017.942.727 2.161.794 2.813.1.977-.506 1.661-1.46 1.661-.93 0-1.475-.733-1.401-1.66.055-.689.883-1.782.765-2.819-.104-.92-.778-.849-1.39-.849C5.82 3.672 3 3.229 3 2.793s2.82-.79 5.729-.79 5.268.354 5.268.79c0 .233-.683.463-1.738.675zM24 18h-1.776l-.37-1.484a1.054 1.054 0 0 0-1-.72H20v-1.78h1.07c1.024 0 1.935.65 2.267 1.618L24 18zm-2.559-5h-.935l-.498-3.653a.96.96 0 1 1 1.905-.007L21.441 13z"/></svg>