<svg width="22" height="27" viewBox="0 0 22 27" fill="none" xmlns="http://www.w3.org/2000/svg">
<g clip-path="url(#clip0_608_382)">
<path d="M11.0001 0C4.97411 0 0.0874023 4.79613 0.0874023 10.7108C0.0874023 16.7183 4.86171 20.8247 11.0001 26.1905C17.1385 20.8247 21.9128 16.7183 21.9128 10.7108C21.9128 4.79613 17.0261 0 11.0001 0ZM11.0001 19.6429C6.17778 19.6429 2.26994 15.7339 2.26994 10.9127C2.26994 6.09147 6.17778 2.18254 11.0001 2.18254C15.8224 2.18254 19.7303 6.09147 19.7303 10.9127C19.7303 15.7339 15.8224 19.6429 11.0001 19.6429Z" fill="#EFEEF4"/>
<path d="M14.2544 9.62239C14.2005 7.85087 13.9951 6.17573 13.63 5.22292C13.1303 4.70958 11.5065 4.45239 9.88271 4.45239C8.26048 4.45239 6.63876 4.70906 6.13852 5.22292C5.70848 6.34596 5.5 8.47263 5.5 10.5778C5.5 12.8375 5.74043 15.0726 6.20505 16.0118C6.80586 16.686 8.34586 17.0238 9.88586 17.0238C11.4248 17.0238 12.9632 16.6865 13.564 16.0118C13.716 15.7043 13.8443 15.2581 13.9475 14.7175C14.114 13.849 14.0559 13.2005 15.4529 13.2005V11.3148C14.1863 11.3148 14.288 10.7386 14.2544 9.62239ZM7.29614 15.2575C6.98395 13.9679 6.50729 10.207 7.14267 7.11387C7.49362 7.18773 7.85714 7.24325 8.18033 7.27101C7.73719 10.2222 7.79114 12.8616 8.37205 15.5833C7.80267 15.5116 7.29614 15.2575 7.29614 15.2575ZM11.9214 6.26896C11.6071 6.33234 11.4777 6.54763 11.4824 6.82315C11.4913 7.31658 11.8632 7.95511 11.8983 8.29663C11.9507 8.80839 11.6333 9.16668 11.1336 9.16668C10.6464 9.16668 10.361 8.78273 10.3997 8.29715C10.4285 7.93625 10.8622 7.36373 10.8004 6.82054C10.746 6.33863 10.3929 6.37582 10.0723 6.37582C8.54857 6.37582 7.07143 6.14377 7.07143 5.91539C7.07143 5.68701 8.54857 5.50158 10.0723 5.50158C11.5961 5.50158 12.8318 5.68701 12.8318 5.91539C12.8318 6.03744 12.474 6.15792 11.9214 6.26896ZM18.0714 13.881H17.1411L16.9473 13.1036C16.8719 12.8784 16.6613 12.7265 16.4235 12.7265H15.9762V11.7941H16.5367C17.073 11.7941 17.5502 12.1346 17.7241 12.6416L18.0714 13.881ZM16.731 11.2619H16.2412L15.9804 9.34844C15.939 9.04673 16.1737 8.77749 16.479 8.77749C16.7823 8.77749 17.017 9.04411 16.9782 9.34477L16.731 11.2619Z" fill="#EFEEF4"/>
</g>
<defs>
<clipPath id="clip0_608_382">
<rect width="22" height="26.1905" fill="white"/>
</clipPath>
</defs>
</svg>
