<svg width="108" height="100" viewBox="0 0 108 100" fill="none" xmlns="http://www.w3.org/2000/svg">
<g clip-path="url(#clip0_638_128)">
<rect width="108" height="100" fill="#EE9900"/>
<path d="M64.6658 22.413C62.4762 21.1414 61.123 18.775 61.1264 16.225V16.2148C61.1298 12.23 57.9372 9 54 9C50.0628 9 46.8702 12.23 46.8702 16.2148V16.225C46.8736 18.7784 45.5238 21.1414 43.3308 22.413C27.463 31.6338 36.5818 62.244 20 67.6534V73.6H88V67.6534C71.4182 62.244 80.537 31.6338 64.6658 22.413ZM54 12.4C55.8768 12.4 57.4 13.9266 57.4 15.8C57.4 17.6768 55.8768 19.2 54 19.2C52.1232 19.2 50.6 17.6768 50.6 15.8C50.6 13.9266 52.1232 12.4 54 12.4ZM64.2 80.4C64.2 85.8332 59.4672 90.6 54.0986 90.6C48.73 90.6 43.8 85.8332 43.8 80.4H64.2Z" fill="#EFEEF4"/>
</g>
<defs>
<clipPath id="clip0_638_128">
<rect width="108" height="100" fill="white"/>
</clipPath>
</defs>
</svg>
