<?xml version="1.0" encoding="utf-8"?>
<!-- Generator: Adobe Illustrator 27.3.0, SVG Export Plug-In . SVG Version: 6.00 Build 0)  -->
<svg version="1.1" id="Capa_1" xmlns="http://www.w3.org/2000/svg" xmlns:xlink="http://www.w3.org/1999/xlink" x="0px" y="0px"
	 viewBox="0 0 108 100" style="enable-background:new 0 0 108 100;" xml:space="preserve">
<style type="text/css">
	.st0{clip-path:url(#SVGID_00000112597989264194475430000006374655857772765347_);}
	.st1{fill:#EFEEF4;}
</style>
<g>
	<defs>
		<rect id="SVGID_1_" y="0" width="108" height="100"/>
	</defs>
	<clipPath id="SVGID_00000044173194798729340500000006589390705737732266_">
		<use xlink:href="#SVGID_1_"  style="overflow:visible;"/>
	</clipPath>
	<g style="clip-path:url(#SVGID_00000044173194798729340500000006589390705737732266_);">
		<path class="st1" d="M64.7,22.4c-2.2-1.3-3.5-3.6-3.5-6.2v0c0-4-3.2-7.2-7.1-7.2s-7.1,3.2-7.1,7.2v0c0,2.6-1.3,4.9-3.5,6.2
			C27.5,31.6,36.6,62.2,20,67.7v5.9h68v-5.9C71.4,62.2,80.5,31.6,64.7,22.4z M54,12.4c1.9,0,3.4,1.5,3.4,3.4c0,1.9-1.5,3.4-3.4,3.4
			s-3.4-1.5-3.4-3.4C50.6,13.9,52.1,12.4,54,12.4z M64.2,80.4c0,5.4-4.7,10.2-10.1,10.2s-10.3-4.8-10.3-10.2H64.2z"/>
	</g>
</g>
</svg>
