<?xml version="1.0" encoding="utf-8"?>
<!-- Generator: Adobe Illustrator 27.3.0, SVG Export Plug-In . SVG Version: 6.00 Build 0)  -->
<svg version="1.1" id="Capa_1" xmlns="http://www.w3.org/2000/svg" xmlns:xlink="http://www.w3.org/1999/xlink" x="0px" y="0px"
	 viewBox="0 0 108 100" style="enable-background:new 0 0 108 100;" xml:space="preserve">
<style type="text/css">
	.st0{clip-path:url(#SVGID_00000137828599459362502290000017199419544355321985_);}
	.st1{fill:#EFEEF4;}
</style>
<g>
	<defs>
		<rect id="SVGID_1_" y="0" width="108" height="100"/>
	</defs>
	<clipPath id="SVGID_00000105407192579360444060000006963931920755709852_">
		<use xlink:href="#SVGID_1_"  style="overflow:visible;"/>
	</clipPath>
	<g style="clip-path:url(#SVGID_00000105407192579360444060000006963931920755709852_);">
		<path class="st1" d="M104,20.5l-3.1,8.3h-8l-14.5,50H23.2L4,33h21.5L21,41.3h-4.5l12.2,29.2h43.5l14.3-50H104z M39.4,83
			c-3.4,0-6.2,2.8-6.2,6.2c0,3.5,2.8,6.2,6.2,6.2c3.5,0,6.2-2.8,6.2-6.2C45.7,85.8,42.9,83,39.4,83z M60.2,83
			c-3.5,0-6.2,2.8-6.2,6.2s2.8,6.2,6.2,6.2s6.2-2.8,6.2-6.2C66.5,85.8,63.7,83,60.2,83z"/>
		<path class="st1" d="M53.9,57.8l13.9-25.5c2.9,0,5.3-1.7,6.7-4.4c2-3.7,0.8-8.4-2.8-10.6c-0.4-3-2.4-6.1-5.5-7.7
			c-1.9-1.1-3.9-1.3-6.2-0.9c-2.1-2.2-5.3-3.3-8.4-2.6c-3.9-3-9.8-2.1-12.3,2.4c-1.5,2.8-1.2,6,0.6,8.5L26,42.5
			c-0.7,1.3-2,2-3.3,1.3L21,47l31.9,17.4l1.7-3.1C53.3,60.5,53.2,59.1,53.9,57.8z M36.2,47.5l-4-2.2L46.1,20
			c0.9,1.6,2.6,2.5,3.7,2.7L36.2,47.5z M65.4,28c-1.3-0.7-2-1.9-2.2-3.2l-1.2,0.1c-4.3,0.7-3.8,6.5-4.7,8.6
			c-0.9,2.1-2.9,2.9-4.8,1.8c-1.9-1-2.1-3.2-0.9-4.9c1.2-1.9,6.3-4.1,4.7-8.9l-0.6-1.8c-1.4,0.5-3,0.5-4.4-0.3
			c-1.2-0.7-2.1-1.7-2.5-2.9c-1.2,0.6-2.7,0.6-4-0.1c-5.4-3-1.4-10.8,4.2-7.8c0.8,0.4,1.4,1.1,1.8,1.8c1.6-1.1,3.7-1.3,5.5-0.3
			c1.2,0.6,2,1.7,2.4,2.8c1.9-1.1,4.3-1.2,6.3-0.1c2.5,1.4,3.7,4.2,3.2,6.8c0.5,0.1,1,0.2,1.5,0.5c2.1,1.2,2.9,3.9,1.8,6
			C70.3,28.3,67.6,29.1,65.4,28z M75.5,46.8c-2.8,5.1-9.8,9.5-17.6,8.4l2.4-4.3c8.3-0.2,14.7-8.2,9.9-10.8l-3.1-1.7l2.2-4l3.8,2.1
			C77.3,38.9,77.6,43,75.5,46.8z"/>
	</g>
</g>
</svg>
