<svg width="108" height="100" viewBox="0 0 108 100" fill="none" xmlns="http://www.w3.org/2000/svg">
<g clip-path="url(#clip0_619_120)">
<rect width="108" height="100" fill="#EE9900"/>
<path d="M104 20.5L100.904 28.8333H92.8667L78.3917 78.8333H23.2292L4 33H25.5L21 41.3333H16.5333L28.7708 70.5H72.2208L86.5208 20.5H104ZM39.4167 83C35.9667 83 33.1667 85.8 33.1667 89.25C33.1667 92.7042 35.9667 95.5 39.4167 95.5C42.8667 95.5 45.6667 92.7042 45.6667 89.25C45.6667 85.8 42.8667 83 39.4167 83ZM60.25 83C56.8 83 54 85.7958 54 89.25C54 92.7042 56.8 95.5 60.25 95.5C63.7 95.5 66.5 92.7042 66.5 89.25C66.5 85.8 63.7 83 60.25 83Z" fill="#EFEEF4"/>
<path d="M53.9372 57.7648L67.853 32.2907C70.7061 32.311 73.1116 30.6002 74.5738 27.9236C76.6157 24.1858 75.3524 19.5153 71.7818 17.2955C71.4136 14.3285 69.3491 11.2196 66.3214 9.56563C64.3847 8.50767 62.4203 8.26846 60.1212 8.67513C58.004 6.42573 54.798 5.3969 51.689 6.11993C47.7634 3.08981 41.8807 3.9836 39.4216 8.48525C37.9006 11.2696 38.243 14.5255 39.9786 16.9471L26.0137 42.5111C25.2903 43.8354 24.0329 44.5444 22.7085 43.8209L20.9946 46.9583L52.9071 64.3912L54.621 61.2538C53.2966 60.5303 53.2137 59.0892 53.9372 57.7648ZM36.2305 47.5121L32.2414 45.3329L46.0995 19.9645C46.98 21.5384 48.6808 22.426 49.7976 22.6761L36.2305 47.5121ZM65.4339 27.9677C64.1833 27.2845 63.3949 26.0873 63.188 24.783L61.9442 24.9219C57.625 25.6131 58.12 31.3867 57.213 33.5353C56.3519 35.5951 54.3404 36.3998 52.4396 35.3614C50.5847 34.3481 50.3541 32.1866 51.5106 30.4203C52.7318 28.5546 57.8054 26.3021 56.1805 21.4781L55.5568 19.6664C54.1676 20.1947 52.5648 20.1374 51.1586 19.3693C49.9519 18.7101 49.1066 17.6501 48.6969 16.4422C47.4602 17.0278 45.972 17.0358 44.6795 16.3298C39.2624 13.3705 43.2982 5.50376 48.9168 8.57303C49.7106 9.00668 50.3218 9.65134 50.7097 10.3967C52.2939 9.3172 54.4087 9.13878 56.2078 10.1216C57.3866 10.7655 58.2217 11.7966 58.6409 12.9683C60.5131 11.883 62.894 11.7722 64.9324 12.8857C67.4356 14.2531 68.6663 17.049 68.1577 19.7105C68.6718 19.779 69.1825 19.944 69.6692 20.2099C71.8073 21.3779 72.5955 24.0641 71.4265 26.2042C70.2574 28.3444 67.574 29.1368 65.4339 27.9677ZM75.462 46.8061C72.6956 51.8703 65.6248 56.3233 57.9027 55.2463L60.2562 50.9381C68.5408 50.7246 74.9876 42.7867 70.1689 40.1544L67.0713 38.4623L69.2505 34.4732L73.064 36.5565C77.3403 38.8925 77.5517 42.9806 75.462 46.8061Z" fill="#EFEEF4"/>
</g>
<defs>
<clipPath id="clip0_619_120">
<rect width="108" height="100" fill="white"/>
</clipPath>
</defs>
</svg>
