<?xml version="1.0" encoding="utf-8"?>
<!-- Generator: Adobe Illustrator 27.3.0, SVG Export Plug-In . SVG Version: 6.00 Build 0)  -->
<svg version="1.1" id="Capa_1" xmlns="http://www.w3.org/2000/svg" xmlns:xlink="http://www.w3.org/1999/xlink" x="0px" y="0px"
	 viewBox="0 0 108 100" style="enable-background:new 0 0 108 100;" xml:space="preserve">
<style type="text/css">
	.st0{clip-path:url(#SVGID_00000163067311183968737380000001141354483525086382_);}
	.st1{clip-path:url(#SVGID_00000070825319657462459940000007732405180889555377_);}
	.st2{fill:#EFEEF4;}
</style>
<g>
	<defs>
		<rect id="SVGID_1_" y="0" width="108" height="100"/>
	</defs>
	<clipPath id="SVGID_00000127043290447032017110000001333414292024688547_">
		<use xlink:href="#SVGID_1_"  style="overflow:visible;"/>
	</clipPath>
	<g style="clip-path:url(#SVGID_00000127043290447032017110000001333414292024688547_);">
		<g>
			<defs>
				<rect id="SVGID_00000070810903408640046370000012798576223199382935_" x="14" y="10" width="80" height="80"/>
			</defs>
			<clipPath id="SVGID_00000048500676493617199240000016893755653214064302_">
				<use xlink:href="#SVGID_00000070810903408640046370000012798576223199382935_"  style="overflow:visible;"/>
			</clipPath>
			<g style="clip-path:url(#SVGID_00000048500676493617199240000016893755653214064302_);">
				<path class="st2" d="M54,10c-22.1,0-40,17.9-40,40s17.9,40,40,40s40-17.9,40-40S76.1,10,54,10z M79.8,71c-0.9-2-2.6-3.3-6.2-4.1
					c-7.6-1.8-14.8-3.3-11.3-9.8c10.5-19.8,2.8-30.4-8.3-30.4c-11.3,0-18.8,11-8.3,30.4c3.6,6.5-3.8,8.1-11.3,9.8
					c-3.6,0.8-5.4,2.2-6.2,4.2c-4.7-5.7-7.5-13.1-7.5-21c0-18.4,15-33.3,33.3-33.3s33.3,15,33.3,33.3C87.3,58,84.5,65.3,79.8,71z"/>
				<path class="st2" d="M81.3,51.3c-0.6-0.8-1.5-1.3-2.5-1.3c-0.9,0-1.8,0.4-2.4,1.1c-1.7-0.2-3.1,1.2-3.1,3c0,0.8,0.3,1.5,0.8,2.1
					c0,3.1,1.4,5.7,1.6,8.4c0.1,1.5-0.2,3.8-0.5,5.1c-0.2,1.3,1.7,1.9,3.7,1.9c2,0,3.9-0.6,3.7-1.9c-0.2-1.4-0.6-3.6-0.5-5.1
					c0.2-2.7,1.6-5.3,1.6-8.4c0.5-0.5,0.8-1.2,0.8-2C84.4,52.4,82.9,51,81.3,51.3z M77.9,69.9c-0.2,0-0.4,0-0.6-0.1
					c-0.3,0-0.5-0.1-0.6-0.1c0.3-1.6,0.6-3.7,0.4-5.3c-0.1-1.4-0.4-2.7-0.8-3.9c-0.3-1-0.6-2.3-0.8-3.5c0.5,0.1,0.9,0,1.4-0.1
					c0.2,2.4,1.2,4.4,1.4,7C78.4,66.1,78.2,68.5,77.9,69.9z M81.1,55.6c-0.8,0.9,0.1,2.3,0.2,3.1c0.1,0.8-0.4,1.4-1.1,1.4
					c-0.7,0-1.1-0.6-1.1-1.4c0.1-0.7,1-2.1,0.3-3.1c-0.7,0.2-1.5,0.1-2.1-0.5c-0.3,0.4-0.8,0.7-1.3,0.7c-0.9,0-1.6-0.8-1.6-1.7
					c0-0.9,0.7-1.7,1.6-1.7c0.3,0,0.6,0.1,0.8,0.3c0.3-0.8,1-1.3,1.9-1.3c1,0,1.8,0.7,2,1.6c0.3-0.2,0.6-0.4,1-0.4
					c0.8,0,1.5,0.7,1.5,1.6C83.2,55.3,82,56.1,81.1,55.6z"/>
			</g>
		</g>
	</g>
</g>
</svg>
