<?xml version="1.0" encoding="UTF-8"?>
<svg id="Capa_2" data-name="Capa 2" xmlns="http://www.w3.org/2000/svg" viewBox="0 0 143.47 22">
  <defs>
    <style>
      .cls-1 {
        fill: #fff;
        fill-rule: evenodd;
      }
    </style>
  </defs>
  <g id="Capa_1-2" data-name="Capa 1">
    <g>
      <polygon class="cls-1" points="91.46 15.77 92.13 16.5 92.79 17.16 93.53 17.89 94.4 18.55 95.27 19.15 96.2 19.75 97.21 20.28 98.21 20.74 99.28 21.14 100.42 21.47 101.55 21.67 102.76 21.87 104.03 21.87 105.23 21.8 106.5 21.67 107.84 21.34 110.18 20.41 112.05 19.02 113.39 17.43 114.32 15.64 114.92 13.85 115.19 12.13 115.26 10.6 115.06 9.34 114.72 8.22 114.12 6.96 113.25 5.63 112.18 4.31 110.85 3.05 109.24 1.92 107.3 1 105.16 .33 104.36 .2 103.49 .07 102.62 0 101.69 0 100.82 .07 99.88 .13 98.95 .26 98.01 .4 97.07 .66 96.07 .93 95.13 1.19 94.2 1.59 93.26 1.99 92.33 2.45 91.39 2.98 90.52 3.58 89.18 4.64 87.85 5.83 86.58 7.29 85.24 8.75 83.97 10.34 82.7 11.93 81.5 13.52 80.29 14.98 79.09 16.3 77.89 17.5 76.75 18.42 75.68 19.09 74.61 19.42 73.61 19.42 72.6 18.95 71.67 18.02 71.4 18.29 71.8 18.62 72.2 18.95 72.67 19.28 73.21 19.55 73.74 19.75 74.41 19.88 75.08 19.95 75.81 19.81 76.68 19.62 77.55 19.22 78.49 18.62 79.49 17.89 80.56 16.9 81.7 15.64 82.97 14.18 84.24 12.39 85.04 11.33 85.77 10.27 86.51 9.34 87.31 8.48 88.05 7.69 88.78 6.96 89.45 6.3 90.19 5.7 91.06 5.04 91.93 4.37 92.73 3.84 93.6 3.38 94.33 2.92 95.13 2.58 95.87 2.25 96.67 1.99 97.34 1.72 98.08 1.59 98.74 1.39 99.35 1.33 100.01 1.19 100.55 1.19 101.15 1.13 101.69 1.13 102.42 1.13 103.22 1.19 104.16 1.33 105.03 1.46 105.97 1.72 106.9 2.05 107.9 2.39 108.84 2.85 109.71 3.38 110.58 4.04 111.38 4.71 112.18 5.57 112.78 6.43 113.39 7.42 113.85 8.55 114.19 9.81 114.39 11.93 114.19 13.78 113.52 15.44 112.58 16.83 111.45 18.02 110.18 18.95 108.91 19.62 107.7 20.08 107.1 20.21 106.43 20.41 105.7 20.54 104.9 20.68 104.03 20.81 103.16 20.81 102.15 20.81 101.15 20.68 100.08 20.54 98.95 20.21 97.81 19.88 96.61 19.35 95.4 18.69 94.13 17.89 92.79 16.9 91.46 15.77 91.46 15.77"/>
      <polygon class="cls-1" points="51.54 6.3 50.88 5.57 50.21 4.9 49.47 4.18 48.6 3.51 47.73 2.92 46.8 2.32 45.8 1.79 44.79 1.33 43.72 .93 42.59 .6 41.45 .33 40.25 .2 38.98 .13 37.77 .2 36.5 .33 35.17 .66 32.83 1.66 30.95 2.98 29.62 4.64 28.68 6.43 28.08 8.22 27.81 9.94 27.74 11.53 27.95 12.79 28.28 13.92 28.88 15.18 29.75 16.5 30.82 17.83 32.16 19.09 33.76 20.15 35.7 21.07 37.84 21.67 38.64 21.8 39.51 21.94 40.38 22 41.32 22 42.19 22 43.12 21.94 44.06 21.8 44.99 21.67 45.93 21.41 46.87 21.14 47.8 20.88 48.74 20.48 49.67 20.08 50.61 19.62 51.54 19.09 52.41 18.49 53.75 17.43 55.09 16.24 56.43 14.78 57.7 13.32 58.97 11.73 60.24 10.14 61.51 8.55 62.71 7.09 63.91 5.77 65.12 4.57 66.25 3.65 67.32 2.98 68.39 2.65 69.4 2.72 70.4 3.18 71.33 4.11 71.6 3.84 71.2 3.51 70.8 3.11 70.33 2.85 69.8 2.52 69.2 2.32 68.59 2.19 67.86 2.19 67.12 2.25 66.32 2.45 65.45 2.85 64.52 3.45 63.51 4.24 62.44 5.24 61.31 6.49 60.04 7.95 58.77 9.74 57.96 10.8 57.23 11.8 56.49 12.72 55.69 13.59 54.96 14.38 54.22 15.11 53.55 15.84 52.82 16.44 51.95 17.1 51.08 17.69 50.28 18.22 49.41 18.75 48.67 19.15 47.87 19.48 47.07 19.81 46.33 20.08 45.66 20.28 44.93 20.48 44.26 20.61 43.59 20.74 42.99 20.81 42.39 20.88 41.78 20.94 41.25 20.94 40.51 20.94 39.71 20.88 38.84 20.74 37.91 20.61 36.97 20.34 36.04 20.08 35.1 19.68 34.16 19.22 33.29 18.69 32.42 18.09 31.62 17.36 30.82 16.57 30.22 15.64 29.62 14.65 29.15 13.52 28.82 12.26 28.62 10.14 28.82 8.28 29.48 6.63 30.42 5.24 31.56 4.04 32.76 3.11 34.03 2.45 35.23 1.99 35.83 1.79 36.5 1.66 37.24 1.52 38.04 1.39 38.91 1.26 39.78 1.19 40.78 1.26 41.78 1.33 42.86 1.52 43.99 1.79 45.13 2.19 46.33 2.72 47.6 3.38 48.87 4.18 50.21 5.17 51.54 6.3 51.54 6.3"/>
      <polygon class="cls-1" points="58.7 18.49 59.03 18.95 59.43 19.28 59.9 19.55 60.37 19.68 60.84 19.68 61.37 19.55 61.91 19.35 62.44 19.02 63.18 18.42 64.25 17.56 65.45 16.44 66.79 15.18 68.12 13.78 69.46 12.46 70.67 11.07 71.67 9.87 73.07 8.22 74.41 6.76 75.61 5.57 76.68 4.64 77.75 3.84 78.62 3.25 79.49 2.78 80.29 2.52 80.96 2.39 81.63 2.39 82.23 2.45 82.77 2.58 83.23 2.85 83.7 3.11 84.1 3.45 84.44 3.78 84.17 4.04 83.37 3.31 82.5 3.05 81.5 3.11 80.43 3.58 79.29 4.31 78.09 5.3 76.88 6.49 75.61 7.82 74.28 9.28 72.94 10.8 71.6 12.33 70.26 13.85 68.99 15.31 67.66 16.63 66.45 17.76 65.25 18.69 64.72 19.02 63.98 19.48 63.11 19.88 62.11 20.15 61.11 20.28 60.1 20.15 59.1 19.68 58.3 18.82 58.7 18.49 58.7 18.49"/>
      <polygon class="cls-1" points="1.54 10.47 4.48 10.41 7.76 10.34 11.23 10.34 14.98 10.27 18.92 10.21 23.06 10.21 27.41 10.14 31.89 10.14 36.57 10.14 41.32 10.14 46.2 10.07 51.14 10.07 56.16 10.07 61.31 10.07 66.39 10.07 71.6 10.07 76.75 10.14 81.9 10.14 86.98 10.14 92.06 10.14 97.01 10.14 101.89 10.21 106.7 10.21 111.38 10.21 115.93 10.27 120.27 10.27 124.48 10.34 128.49 10.34 132.31 10.41 135.85 10.41 139.13 10.47 142.2 10.47 142.6 10.47 143 10.6 143.27 10.74 143.4 10.87 143.47 11 143.27 11.13 142.87 11.2 142.2 11.27 138.12 11.33 133.84 11.4 129.36 11.46 124.75 11.53 119.94 11.6 115.06 11.6 110.04 11.6 104.9 11.6 99.68 11.6 94.4 11.6 89.12 11.6 83.77 11.6 78.49 11.53 73.14 11.53 67.86 11.53 62.64 11.46 57.5 11.4 52.48 11.4 47.53 11.33 42.72 11.33 38.04 11.27 33.49 11.27 29.15 11.27 25.07 11.2 21.13 11.2 17.45 11.2 14.04 11.2 10.96 11.2 8.09 11.2 5.55 11.2 3.41 11.2 1.54 11.27 .94 11.27 .47 11.2 .13 11.07 0 10.87 .07 10.74 .34 10.6 .8 10.54 1.54 10.47 1.54 10.47"/>
      <polygon class="cls-1" points="51.34 18.42 51.88 18.29 52.28 18.82 52.68 19.22 53.08 19.48 53.55 19.62 54.09 19.68 54.62 19.62 55.16 19.35 55.76 19.02 56.49 18.42 57.56 17.56 58.77 16.44 60.1 15.18 61.44 13.78 62.78 12.46 63.98 11.07 65.05 9.87 66.45 8.22 67.72 6.76 68.93 5.57 70.06 4.64 71.07 3.84 72 3.25 72.8 2.78 73.61 2.52 74.34 2.39 74.94 2.39 75.55 2.45 76.08 2.58 76.62 2.85 77.02 3.11 77.42 3.45 77.82 3.78 77.55 4.04 76.75 3.31 75.88 3.05 74.88 3.11 73.81 3.58 72.67 4.31 71.47 5.3 70.2 6.49 68.93 7.82 67.59 9.28 66.25 10.8 64.98 12.33 63.65 13.85 62.31 15.31 61.04 16.63 59.84 17.76 58.63 18.69 58.03 19.02 57.3 19.48 56.36 19.88 55.29 20.21 54.22 20.28 53.15 20.08 52.21 19.48 51.34 18.42 51.34 18.42"/>
      <polygon class="cls-1" points="65.45 18.49 65.85 18.95 66.25 19.28 66.65 19.55 67.12 19.68 67.66 19.68 68.12 19.55 68.73 19.35 69.26 19.02 70 18.42 71.07 17.56 72.27 16.44 73.61 15.18 74.94 13.78 76.28 12.46 77.48 11.07 78.49 9.87 79.89 8.22 81.23 6.76 82.43 5.57 83.5 4.64 84.57 3.84 85.44 3.25 86.31 2.78 87.11 2.52 87.78 2.39 88.45 2.39 89.05 2.45 89.59 2.58 90.05 2.85 90.52 3.11 90.92 3.45 91.26 3.78 90.99 4.04 90.19 3.31 89.32 3.05 88.32 3.11 87.25 3.58 86.11 4.31 84.91 5.3 83.64 6.49 82.37 7.82 81.09 9.28 79.76 10.8 78.42 12.33 77.08 13.85 75.81 15.31 74.48 16.63 73.27 17.76 72.07 18.69 71.54 19.02 70.8 19.48 69.93 19.88 68.93 20.15 67.92 20.28 66.92 20.15 65.92 19.68 65.12 18.82 65.45 18.49 65.45 18.49"/>
    </g>
  </g>
</svg>