<?xml version="1.0" encoding="UTF-8"?>
<svg id="Capa_1" data-name="Capa 1" xmlns="http://www.w3.org/2000/svg" viewBox="0 0 2983.83 3160.08">
  <defs>
    <style>
      .cls-1 {
        fill: #fff;
      }

      .cls-2 {
        fill: #422913;
      }
    </style>
  </defs>
  <g>
    <path class="cls-2" d="M505.81,928.18c21.85-11.87,425.01-148.38,598.13-206.02,173.14-57.65,603.15-176.49,603.15-176.49,0,0-.54-2.26,99.4-130.73,99.95-128.47,245.22-338.34,245.22-338.34,0,0,111.84-109.78,217.38-66.48,105.56,43.28,74.43,233.79,74.43,233.79l-54.96,356.85s18.14,164.55,175.22,256.49c157.06,91.95,605.53,310.44,505.7,967.67-99.85,657.2-840.22,1321-1457.08,1334.9C895.51,3173.69-26.72,2656.09,.59,2006.41c27.3-649.7,153.51-727.57,153.51-727.57,0,0-137.54-90.79-65.88-301.95,71.67-211.18,113.2-144.82,193.57-114.59,44.91,16.9,103.96,45.57,140.56,60.26,25.88,10.37,54.23,12.53,81.38,6.1l2.08-.49Z"/>
    <path class="cls-1" d="M1169.54,1922.56s52.4-147.96,242.57-215.79c190.15-67.82,240.93-80.4,240.93-80.4,0,0,236.89-64.58,252.17,198.52,12.16,209.3-7.21,969.05-7.21,969.05,0,0,8.53,147.99-266.86,147.94-219-.05-529.31-129.47-529.31-129.47,0,0-126-53.77-102.52-210.88,23.49-157.13,170.23-678.97,170.23-678.97"/>
    <path class="cls-1" d="M1922.79,1242.32c3.42,5.92,6.06,13.99,11.44,19.33,24.52,24.25,19.36,52.07,7.54,78.27-19.34,42.94-40.02,84.85-70.21,122.56-18.78,23.45-37.26,14.23-57.04,13.42-18.9-.78-27.31-15.06-31.45-30.91-8.4-32.2-9.85-62.84,5.84-95.4,17.13-35.59,33.63-71,56.57-103.36,16.59-23.37,23.07-24.98,47.63-10.79,7.97,4.61,18.7,4.51,29.67,6.87m-90.55,179.76c67.96-46.93,85.54-105.98,43.98-139.42-37.08,44.22-52.33,87.9-43.98,139.42"/>
    <path class="cls-1" d="M1106.09,1310.4c20.43,8.68,27.07,17.03,18.45,31.64-6.21,10.5-2.87,18.92,4.19,27.69,49.51,61.47,48.41,129.58,26.11,200.53-4.99,15.89-14.79,20.38-30.96,18.2-36.27-4.89-70.17-41.43-67.53-76.67,3.12-41.56,4.72-83.71,13.47-124.18,5.71-26.31,23.07-50.09,36.27-77.21"/>
    <path class="cls-2" d="M1653.16,2783.37c5.63-.33,12.21-2.66,16.67-.54,7.31,3.47,15.88,8.56,19.18,15.28,4.92,10.05-2.62,16.6-12.48,19.69-8.58,2.69-17.15,7.69-25.76,7.79-41.82,.46-85.26,.94-119.37-26.8-36.16-29.43-78.46-37-121.5-45-32.05-5.94-64.21-11.19-96.12-17.87-22.91-4.8-31.19-13.93-27.66-26.9,3.57-13.04,16.49-18.7,36.44-15.59,8.89,1.39,17.64,4.14,26.59,4.85,52.12,4.21,83.49-20.83,91.51-72.52,3.22-20.78-9.42-36.47-35.62-39.49-51.24-5.87-83.41-41.19-116.69-74.18-11.49-11.35-10.46-29.85,1.04-40.3,24.61-22.36,41.62-53.74,75.93-64.97,37.38-12.26,73.89-27.4,111.79-37.53,39.82-10.63,74.63,7.66,97.91,40.68,11.96,17,29.1,31.18,46.06,43.69,37.2,27.43,63.56,82.96,15.94,130.72-5.4,5.4-12.03,12.39-18.75,13.27-28.55,3.68-55.45,16.85-86.21,8.68-29.95-7.97-36.72-1.5-45.19,29.47-5.89,21.57-11.44,43.27-16.67,65.02-3.78,15.76,3.52,25.56,17.77,32.05,26.54,12.06,51.95,27.34,79.46,36.5,27.28,9.11,56.56,12.35,84.98,18.14,.25-1.37,.48-2.74,.73-4.13"/>
  </g>
  <path class="cls-2" d="M1117.23,1551.33c46.82-68.05,42.2-129.49-8.55-145.95-18.88,54.52-17.58,100.78,8.55,145.95"/>
</svg>