<?xml version="1.0" encoding="UTF-8"?>
<svg id="Capa_2" data-name="Capa 2" xmlns="http://www.w3.org/2000/svg" viewBox="0 0 89.08 13.66">
  <defs>
    <style>
      .cls-1 {
        fill: #a87a12;
        fill-rule: evenodd;
      }
    </style>
  </defs>
  <g id="Capa_1-2" data-name="Capa 1">
    <g>
      <polygon class="cls-1" points="56.79 9.79 57.2 10.25 57.62 10.66 58.07 11.11 58.61 11.52 59.15 11.89 59.73 12.26 60.36 12.59 60.98 12.88 61.64 13.13 62.35 13.33 63.05 13.46 63.8 13.58 64.59 13.58 65.34 13.54 66.13 13.46 66.96 13.25 68.41 12.67 69.57 11.81 70.4 10.82 70.98 9.71 71.36 8.6 71.52 7.53 71.56 6.58 71.44 5.8 71.23 5.1 70.86 4.32 70.32 3.5 69.65 2.67 68.82 1.89 67.83 1.19 66.62 .62 65.3 .21 64.8 .12 64.26 .04 63.72 0 63.14 0 62.6 .04 62.02 .08 61.44 .16 60.85 .25 60.27 .41 59.65 .58 59.07 .74 58.49 .99 57.91 1.24 57.33 1.52 56.74 1.85 56.21 2.22 55.38 2.88 54.55 3.62 53.76 4.53 52.93 5.43 52.14 6.42 51.35 7.41 50.6 8.39 49.85 9.3 49.11 10.12 48.36 10.86 47.65 11.44 46.99 11.85 46.33 12.06 45.7 12.06 45.08 11.77 44.5 11.19 44.33 11.36 44.58 11.56 44.83 11.77 45.12 11.97 45.45 12.14 45.79 12.26 46.2 12.34 46.62 12.39 47.07 12.3 47.61 12.18 48.15 11.93 48.73 11.56 49.36 11.11 50.02 10.49 50.73 9.71 51.51 8.81 52.3 7.69 52.8 7.04 53.26 6.38 53.71 5.8 54.21 5.27 54.67 4.77 55.13 4.32 55.54 3.91 56 3.54 56.54 3.13 57.08 2.72 57.58 2.39 58.11 2.1 58.57 1.81 59.07 1.6 59.53 1.4 60.02 1.24 60.44 1.07 60.9 .99 61.31 .86 61.68 .82 62.1 .74 62.43 .74 62.81 .7 63.14 .7 63.59 .7 64.09 .74 64.67 .82 65.21 .91 65.79 1.07 66.38 1.28 67 1.48 67.58 1.77 68.12 2.1 68.66 2.51 69.16 2.92 69.65 3.46 70.03 3.99 70.4 4.61 70.69 5.31 70.9 6.09 71.02 7.41 70.9 8.56 70.48 9.59 69.9 10.45 69.2 11.19 68.41 11.77 67.62 12.18 66.87 12.47 66.5 12.55 66.08 12.67 65.63 12.76 65.13 12.84 64.59 12.92 64.05 12.92 63.43 12.92 62.81 12.84 62.14 12.76 61.44 12.55 60.73 12.34 59.98 12.02 59.24 11.6 58.45 11.11 57.62 10.49 56.79 9.79 56.79 9.79"/>
      <polygon class="cls-1" points="32 3.91 31.59 3.46 31.17 3.04 30.72 2.59 30.18 2.18 29.64 1.81 29.06 1.44 28.43 1.11 27.81 .82 27.15 .58 26.44 .37 25.74 .21 24.99 .12 24.2 .08 23.45 .12 22.67 .21 21.84 .41 20.38 1.03 19.22 1.85 18.39 2.88 17.81 3.99 17.43 5.1 17.27 6.17 17.23 7.16 17.35 7.94 17.56 8.64 17.93 9.42 18.47 10.25 19.14 11.07 19.97 11.85 20.96 12.51 22.17 13.08 23.5 13.46 23.99 13.54 24.53 13.62 25.07 13.66 25.65 13.66 26.19 13.66 26.77 13.62 27.36 13.54 27.94 13.46 28.52 13.29 29.1 13.13 29.68 12.96 30.26 12.72 30.84 12.47 31.42 12.18 32 11.85 32.54 11.48 33.37 10.82 34.2 10.08 35.03 9.18 35.82 8.27 36.61 7.28 37.4 6.3 38.19 5.31 38.94 4.4 39.68 3.58 40.43 2.84 41.14 2.26 41.8 1.85 42.47 1.65 43.09 1.69 43.71 1.98 44.29 2.55 44.46 2.39 44.21 2.18 43.96 1.93 43.67 1.77 43.34 1.56 42.96 1.44 42.59 1.36 42.13 1.36 41.68 1.4 41.18 1.52 40.64 1.77 40.06 2.14 39.44 2.63 38.77 3.25 38.07 4.03 37.28 4.94 36.49 6.05 35.99 6.71 35.53 7.32 35.08 7.9 34.58 8.44 34.12 8.93 33.67 9.38 33.25 9.83 32.79 10.2 32.25 10.62 31.71 10.99 31.22 11.32 30.68 11.64 30.22 11.89 29.72 12.1 29.22 12.3 28.77 12.47 28.35 12.59 27.9 12.72 27.48 12.8 27.07 12.88 26.69 12.92 26.32 12.96 25.94 13 25.61 13 25.16 13 24.66 12.96 24.12 12.88 23.54 12.8 22.96 12.63 22.37 12.47 21.79 12.22 21.21 11.93 20.67 11.6 20.13 11.23 19.64 10.78 19.14 10.29 18.76 9.71 18.39 9.09 18.1 8.39 17.89 7.61 17.77 6.3 17.89 5.14 18.31 4.12 18.89 3.25 19.59 2.51 20.34 1.93 21.13 1.52 21.88 1.24 22.25 1.11 22.67 1.03 23.12 .95 23.62 .86 24.16 .78 24.7 .74 25.32 .78 25.94 .82 26.61 .95 27.31 1.11 28.02 1.36 28.77 1.69 29.56 2.1 30.34 2.59 31.17 3.21 32 3.91 32 3.91"/>
      <polygon class="cls-1" points="36.45 11.48 36.65 11.77 36.9 11.97 37.19 12.14 37.48 12.22 37.77 12.22 38.11 12.14 38.44 12.02 38.77 11.81 39.23 11.44 39.89 10.9 40.64 10.2 41.47 9.42 42.3 8.56 43.13 7.74 43.88 6.87 44.5 6.13 45.37 5.1 46.2 4.2 46.95 3.46 47.61 2.88 48.28 2.39 48.82 2.02 49.36 1.73 49.85 1.56 50.27 1.48 50.68 1.48 51.06 1.52 51.39 1.6 51.68 1.77 51.97 1.93 52.22 2.14 52.43 2.35 52.26 2.51 51.76 2.06 51.22 1.89 50.6 1.93 49.94 2.22 49.23 2.67 48.48 3.29 47.74 4.03 46.95 4.86 46.12 5.76 45.29 6.71 44.46 7.65 43.63 8.6 42.84 9.51 42.01 10.33 41.26 11.03 40.51 11.6 40.18 11.81 39.73 12.1 39.19 12.34 38.56 12.51 37.94 12.59 37.32 12.51 36.7 12.22 36.2 11.69 36.45 11.48 36.45 11.48"/>
      <polygon class="cls-1" points=".96 6.5 2.78 6.46 4.82 6.42 6.97 6.42 9.3 6.38 11.75 6.34 14.32 6.34 17.02 6.3 19.8 6.3 22.71 6.3 25.65 6.3 28.68 6.25 31.76 6.25 34.87 6.25 38.07 6.25 41.22 6.25 44.46 6.25 47.65 6.3 50.85 6.3 54 6.3 57.16 6.3 60.23 6.3 63.26 6.34 66.25 6.34 69.16 6.34 71.98 6.38 74.68 6.38 77.29 6.42 79.78 6.42 82.15 6.46 84.35 6.46 86.38 6.5 88.29 6.5 88.54 6.5 88.79 6.58 88.96 6.67 89.04 6.75 89.08 6.83 88.96 6.91 88.71 6.95 88.29 7 85.76 7.04 83.1 7.08 80.32 7.12 77.46 7.16 74.47 7.2 71.44 7.2 68.33 7.2 65.13 7.2 61.89 7.2 58.61 7.2 55.33 7.2 52.01 7.2 48.73 7.16 45.41 7.16 42.13 7.16 38.9 7.12 35.7 7.08 32.59 7.08 29.51 7.04 26.53 7.04 23.62 7 20.8 7 18.1 7 15.57 6.95 13.12 6.95 10.83 6.95 8.72 6.95 6.81 6.95 5.02 6.95 3.45 6.95 2.12 6.95 .96 7 .58 7 .29 6.95 .08 6.87 0 6.75 .04 6.67 .21 6.58 .5 6.54 .96 6.5 .96 6.5"/>
      <polygon class="cls-1" points="31.88 11.44 32.21 11.36 32.46 11.69 32.71 11.93 32.96 12.1 33.25 12.18 33.58 12.22 33.91 12.18 34.25 12.02 34.62 11.81 35.08 11.44 35.74 10.9 36.49 10.2 37.32 9.42 38.15 8.56 38.98 7.74 39.73 6.87 40.39 6.13 41.26 5.1 42.05 4.2 42.8 3.46 43.5 2.88 44.13 2.39 44.71 2.02 45.2 1.73 45.7 1.56 46.16 1.48 46.53 1.48 46.91 1.52 47.24 1.6 47.57 1.77 47.82 1.93 48.07 2.14 48.32 2.35 48.15 2.51 47.65 2.06 47.11 1.89 46.49 1.93 45.83 2.22 45.12 2.67 44.38 3.29 43.59 4.03 42.8 4.86 41.97 5.76 41.14 6.71 40.35 7.65 39.52 8.6 38.69 9.51 37.9 10.33 37.15 11.03 36.41 11.6 36.03 11.81 35.58 12.1 34.99 12.34 34.33 12.55 33.67 12.59 33 12.47 32.42 12.1 31.88 11.44 31.88 11.44"/>
      <polygon class="cls-1" points="40.64 11.48 40.89 11.77 41.14 11.97 41.39 12.14 41.68 12.22 42.01 12.22 42.3 12.14 42.67 12.02 43 11.81 43.46 11.44 44.13 10.9 44.87 10.2 45.7 9.42 46.53 8.56 47.36 7.74 48.11 6.87 48.73 6.13 49.61 5.1 50.44 4.2 51.18 3.46 51.85 2.88 52.51 2.39 53.05 2.02 53.59 1.73 54.09 1.56 54.5 1.48 54.92 1.48 55.29 1.52 55.62 1.6 55.91 1.77 56.21 1.93 56.45 2.14 56.66 2.35 56.5 2.51 56 2.06 55.46 1.89 54.84 1.93 54.17 2.22 53.47 2.67 52.72 3.29 51.93 4.03 51.14 4.86 50.35 5.76 49.52 6.71 48.69 7.65 47.86 8.6 47.07 9.51 46.24 10.33 45.5 11.03 44.75 11.6 44.42 11.81 43.96 12.1 43.42 12.34 42.8 12.51 42.17 12.59 41.55 12.51 40.93 12.22 40.43 11.69 40.64 11.48 40.64 11.48"/>
    </g>
  </g>
</svg>