<?xml version="1.0" encoding="utf-8"?>
<!-- Generator: Adobe Illustrator 27.3.0, SVG Export Plug-In . SVG Version: 6.00 Build 0)  -->
<svg version="1.1" id="Capa_1" xmlns="http://www.w3.org/2000/svg" xmlns:xlink="http://www.w3.org/1999/xlink" x="0px" y="0px"
	 viewBox="0 0 5368 934.9" style="enable-background:new 0 0 5368 934.9;" xml:space="preserve">
<style type="text/css">
	.st0{fill:#422913;}
	.st1{fill:#FFFFFF;}
	.st2{enable-background:new    ;}
</style>
<g>
	<path class="st0" d="M675.1,870.2c-300,29.3-424.2-54.1-467.5-157.5C168.3,618.6,105,406,286.1,223.9
		C467.1,41.7,682.9,43.7,821.5,76.2C1207.2,166.5,1060.3,832.6,675.1,870.2"/>
	<path class="st1" d="M744.9,816.3c-267,79.4-394.1,26.5-451.2-58.8c-52-77.6-146.1-257.3-13.5-453C412.9,108.8,608.9,72.3,740.4,77
		C1105.7,90,1087.8,714.3,744.9,816.3"/>
	<path class="st0" d="M444.5,326.7c3.6-2,69.9-24.4,98.4-33.9s99.3-29,99.3-29s-0.1-0.4,16.4-21.5c16.4-21.1,40.4-55.7,40.4-55.7
		s18.4-18.1,35.8-10.9c17.4,7.1,12.2,38.5,12.2,38.5l-9,58.7c0,0,3,27.1,28.8,42.2s99.7,51.1,83.2,159.3
		c-16.4,108.2-138.3,217.4-239.8,219.7s-253.3-82.9-248.8-189.8s25.3-119.7,25.3-119.7s-22.6-14.9-10.8-49.7
		c11.8-34.8,18.6-23.8,31.9-18.9c7.4,2.8,17.1,7.5,23.1,9.9c4.3,1.7,8.9,2.1,13.4,1L444.5,326.7L444.5,326.7z"/>
	<path class="st1" d="M553.7,490.3c0,0,8.6-24.4,39.9-35.5c31.3-11.2,39.7-13.2,39.7-13.2s39-10.6,41.5,32.7
		c2,34.4-1.2,159.5-1.2,159.5s1.4,24.4-43.9,24.3c-36,0-87.1-21.3-87.1-21.3s-20.7-8.8-16.9-34.7
		C529.6,576.2,553.7,490.3,553.7,490.3"/>
	<path class="st1" d="M677.7,378.4c0.6,1,1,2.3,1.9,3.2c4,4,3.2,8.6,1.2,12.9c-3.2,7.1-6.6,14-11.6,20.2c-3.1,3.9-6.1,2.3-9.4,2.2
		c-3.1-0.1-4.5-2.5-5.2-5.1c-1.4-5.3-1.6-10.3,1-15.7c2.8-5.9,5.5-11.7,9.3-17c2.7-3.8,3.8-4.1,7.8-1.8
		C674.1,378,675.9,378,677.7,378.4 M662.8,407.9c11.2-7.7,14.1-17.4,7.2-22.9C663.9,392.3,661.4,399.5,662.8,407.9"/>
	<path class="st1" d="M543.3,389.6c3.4,1.4,4.5,2.8,3,5.2c-1,1.7-0.5,3.1,0.7,4.6c8.1,10.1,8,21.3,4.3,33c-0.8,2.6-2.4,3.4-5.1,3
		c-6-0.8-11.5-6.8-11.1-12.6c0.5-6.8,0.8-13.8,2.2-20.4C538.3,397.9,541.1,394,543.3,389.6"/>
	<path class="st0" d="M633.3,632c0.9-0.1,2-0.4,2.7-0.1c1.2,0.6,2.6,1.4,3.2,2.5c0.8,1.7-0.4,2.7-2.1,3.2c-1.4,0.4-2.8,1.3-4.2,1.3
		c-6.9,0.1-14,0.2-19.6-4.4c-6-4.8-12.9-6.1-20-7.4c-5.3-1-10.6-1.8-15.8-2.9c-3.8-0.8-5.1-2.3-4.6-4.4c0.6-2.1,2.7-3.1,6-2.6
		c1.5,0.2,2.9,0.7,4.4,0.8c8.6,0.7,13.7-3.4,15.1-11.9c0.5-3.4-1.6-6-5.9-6.5c-8.4-1-13.7-6.8-19.2-12.2c-1.9-1.9-1.7-4.9,0.2-6.6
		c4.1-3.7,6.8-8.8,12.5-10.7c6.2-2,12.2-4.5,18.4-6.2c6.6-1.7,12.3,1.3,16.1,6.7c2,2.8,4.8,5.1,7.6,7.2c6.1,4.5,10.5,13.7,2.6,21.5
		c-0.9,0.9-2,2-3.1,2.2c-4.7,0.6-9.1,2.8-14.2,1.4c-4.9-1.3-6-0.2-7.4,4.9c-1,3.6-1.9,7.1-2.7,10.7c-0.6,2.6,0.6,4.2,2.9,5.3
		c4.4,2,8.5,4.5,13.1,6c4.5,1.5,9.3,2,14,3C633.2,632.4,633.3,632.2,633.3,632"/>
</g>
<path class="st0" d="M545.1,429.2c7.7-11.2,6.9-21.3-1.4-24C540.6,414.2,540.8,421.8,545.1,429.2"/>
<g class="st2">
	<path class="st0" d="M1620,397.3c0-10.3-1.6-35.7-3.2-44.9c-10.3-23.8-60.6-62.8-130.4-62.8c-98.5,0-160.7,71.4-160.7,155.8
		c0,105.5,87.1,194.8,201.3,194.8c41.1,0,89.8-6.5,128.2-29.2l-7.6,23.3c-12.4,10.3-67.1,32.5-152,32.5c-20,0-79-2.2-122.8-23.8
		c-70.3-34.6-112-96.3-112-165.6c0-74.7,37.9-129.8,85.5-161.8c56.3-37.9,106.6-44.9,161.2-44.9c47.6,0,97.9,9.7,113.1,14.1
		c3.2-7,9.7-41.7,11.4-48.2l12.4-2.7c-8.1,59.5-11.4,115.8-11.9,167.2L1620,397.3z"/>
	<path class="st0" d="M1756.9,447.6c0-48.7-1.6-134.7-3.8-151.5c-10.3-2.2-43.3-6-56.3-7.6l-2.2-11.4c13,0.5,30.8,1.1,48.7,1.6
		c17.9,0,35.7,0.5,47.6,0.5c17.3,0,144.5,0,159.1-3.8c1.6-6.5,3.2-15.7,4.3-25.4l12.4-2.2c-2.7,11.4-9.7,95.2-10.8,112l-11.9-3.8
		c0-3.8,0.5-28.1,0-39c-9.7-15.7-93.1-22.7-121.7-22.7c-1.6,7.6-3.8,112-3.8,143.9v10.8c46.5,0,99-3.8,112-8.7
		c2.7-8.1,4.3-15.7,5.4-23.3l11.4-1.1c-1.6,9.7-11.4,83.9-14.1,101.2l-10.3-4.3c0.5-11.4,1.1-25.4,1.1-36.2
		c-16.8-8.7-59-11.9-105.5-11.9v10.8c0,33,2.2,150.9,3.8,166.6c54.1,0,105-4.3,129.8-18.4c6-18.9,8.7-35.7,11.9-47.6l12.4-3.2
		c-3.8,15.7-15.7,97.9-17.9,125l-11.4-2.2c0-14.6,0-24.3-0.5-33c-15.7-2.7-135.8-4.9-169.9-4.9c-18.4,0-61.1,1.1-82.2,2.2l2.7-11.4
		c8.7-0.5,41.1-3.8,55.7-7.6c2.2-9.7,3.8-109.3,3.8-168.8V447.6z"/>
	<path class="st0" d="M2101,429.8c0-19.5-0.5-123.4-2.7-133.6c-9.2-2.2-46-5.4-57.9-6.5l-1.6-11.4l116.9-0.5
		c51.4,0,115.8,0.5,152.6,15.1c28.7,11.4,46.5,31.9,46.5,61.7c0,34.1-34.6,79-76.3,102.3c6,13.5,93.1,155.3,149.3,214.8l-23.8,3.8
		c-37.9-17.3-181.8-183.4-190.4-194.8c-20.6,1.6-42.7,3.2-51.9,3.2v14.1c0,35.2,1.1,118.5,2.7,143.4c9.2,2.7,44.9,6.5,56.8,7.6
		l2.2,11.4c-13.5-1.1-68.2-2.2-93.1-2.2c-22.2,0-79,1.1-91.4,2.2l2.2-11.4c7.6-0.5,42.2-3.8,57.3-7.6c2.2-15.7,2.7-121.7,2.7-178.5
		V429.8z M2161.6,467.1c19.5,0,42.7-1.6,66-10.3c23.3-8.7,61.7-33.5,61.7-87.1c0-34.6-31.4-76.8-125-76.8
		c-1.6,22.2-2.7,119-2.7,157.4V467.1z"/>
	<path class="st0" d="M2398.6,277.2c17.3,1.1,47.6,2.2,77.9,2.2c33.5,0,81.7-1.1,93.6-2.2l-2.7,11.4c-11.4,1.1-41.7,4.3-50.9,7.6
		c3.8,18.4,109.8,267.8,123.9,285.1c12.4-24.9,110.4-227.8,121.2-285.1c-10.3-2.2-32.5-4.9-49.8-7.6l-2.7-11.4
		c7.6,1.1,46,2.2,79,2.2c25.4,0,47.6-1.1,60.6-2.2l-2.7,11.4c-10.3,2.2-18.9,4.3-33,7.6c-11.4,6.5-187.7,368.4-194.8,385.8
		c-17.3-30.3-157.4-349-184-385.8c-7-2.2-16.2-4.9-33.5-7.6L2398.6,277.2z"/>
	<path class="st0" d="M2907.7,447.6c0-48.7-1.6-134.7-3.8-151.5c-10.3-2.2-43.3-6-56.3-7.6l-2.2-11.4c13,0.5,30.8,1.1,48.7,1.6
		c17.9,0,35.7,0.5,47.6,0.5c17.3,0,144.5,0,159.1-3.8c1.6-6.5,3.2-15.7,4.3-25.4l12.4-2.2c-2.7,11.4-9.7,95.2-10.8,112l-11.9-3.8
		c0-3.8,0.5-28.1,0-39c-9.7-15.7-93.1-22.7-121.7-22.7c-1.6,7.6-3.8,112-3.8,143.9v10.8c46.5,0,99-3.8,112-8.7
		c2.7-8.1,4.3-15.7,5.4-23.3l11.4-1.1c-1.6,9.7-11.4,83.9-14.1,101.2l-10.3-4.3c0.5-11.4,1.1-25.4,1.1-36.2
		c-16.8-8.7-59-11.9-105.5-11.9v10.8c0,33,2.2,150.9,3.8,166.6c54.1,0,105-4.3,129.8-18.4c6-18.9,8.7-35.7,11.9-47.6l12.4-3.2
		c-3.8,15.7-15.7,97.9-17.9,125l-11.4-2.2c0-14.6,0-24.3-0.5-33c-15.7-2.7-135.8-4.9-169.9-4.9c-18.4,0-61.1,1.1-82.2,2.2l2.7-11.4
		c8.7-0.5,41.1-3.8,55.7-7.6c2.2-9.7,3.8-109.3,3.8-168.8V447.6z"/>
	<path class="st0" d="M3529.3,535.3c-2.7,15.7-27.6,157.4-29.8,185l-12.4-3.8c0.5-10.3,2.7-41.7,2.7-51.9
		c-6.5-3.8-113.6-6.5-163.4-6.5c-23.3,0-99.5,1.6-147.7,3.2c27.1-28.7,244-328.4,261.3-359.8c-36.8-1.1-186.1,8.1-202.3,23.3
		c-5.4,14.1-16.2,53.6-19.5,62.8l-12.4,1.6c11.9-51.9,15.7-138.5,17.3-161.8l12.4,2.7c0.5,14.6,1.1,42.2,1.6,50.3
		c11.4,2.2,123.4,4.9,136.9,4.9c11.4,0,121.2-1.1,154.7-2.7c-29.8,37.3-229.9,312.2-258.6,356c67.1,2.7,195.9-6.5,224-29.8
		c7-9.2,18.9-56.8,22.7-70.3L3529.3,535.3z"/>
	<path class="st0" d="M3794.4,648.9c18.9-1.6,37.9-3.8,54.6-7.6c-9.7-28.1-48.2-142.8-56.8-158.5c-18.9,0-105,3.8-125,7
		c-3.2,7.6-32.5,109.8-37.9,151.5c13.5,3.8,31.4,6,46.5,7.6l2.2,11.4c-16.8-1.1-66-2.2-81.7-2.2c-14.1,0-50.3,1.1-62.8,2.2l1.6-11.4
		c15.7-1.6,31.9-4.3,46.5-7.6c19.5-34.1,127.1-325.2,134.7-345.7c-11.9-3.2-29.8-5.4-42.7-7l-0.5-11.4c16.2,1.1,61.1,2.2,70.3,2.2
		c22.7,0,76.8-1.1,92.5-2.2l-1.6,11.4c-14.1,1.6-28.7,3.8-41.1,7c6.5,23.8,36.2,108.7,56.8,165.6c15.1,41.7,48.7,132.6,73.6,180.2
		c15.7,3.2,31.4,5.4,47.6,7.6l1.6,11.4c-6.5-1.1-61.1-2.2-89.8-2.2c-15.7,0-76.8,1.1-91.4,2.2L3794.4,648.9z M3733.2,304.8h-1.1
		c-16.8,48.2-51.9,141.8-57.3,159.6l113.6,2.2C3776.5,430.8,3742.4,334.5,3733.2,304.8z"/>
	<path class="st0" d="M3970.2,279.4c30.3-1.1,81.2-1.6,123.4-3.8c11.9,18.4,120.7,154.7,129.8,164.5
		c14.1,15.1,100.1,119.6,117.4,134.2c0-60.1-0.5-250-11.4-278.1c-10.8-2.2-39.5-6.5-54.6-7.6l-2.7-11.4c10.3,1.1,68.7,2.2,80.6,2.2
		c11.9,0,56.8-1.1,68.2-2.2l-2.2,11.4c-7,1.1-26.5,5.4-41.1,7.6c-6.5,21.1-9.2,97.4-10.3,114.7c-1.6,25.4-6,252.7-9.2,274.3
		c-16.2-15.1-166.1-189.9-178.5-204c-7.6-8.1-110.4-133.6-128.2-154.2c-1.6,10.8,4.9,294.9,11.9,314.3c8.1,2.7,48.7,6.5,59,7.6
		l1.6,11.4c-9.7-1.1-66-2.2-80.1-2.2c-15.7,0-57.9,1.1-73.6,2.2l1.6-11.4c15.1-2.2,32.5-3.8,44.9-7.6
		c9.2-22.7,15.1-326.2,15.1-344.1c-12.4-2.7-39-5.4-59.5-6.5L3970.2,279.4z"/>
	<path class="st0" d="M4670.8,648.9c18.9-1.6,37.9-3.8,54.6-7.6c-9.7-28.1-48.2-142.8-56.8-158.5c-18.9,0-105,3.8-125,7
		c-3.2,7.6-32.5,109.8-37.9,151.5c13.5,3.8,31.4,6,46.5,7.6l2.2,11.4c-16.8-1.1-66-2.2-81.7-2.2c-14.1,0-50.3,1.1-62.8,2.2l1.6-11.4
		c15.7-1.6,31.9-4.3,46.5-7.6c19.5-34.1,127.1-325.2,134.7-345.7c-11.9-3.2-29.8-5.4-42.7-7l-0.5-11.4c16.2,1.1,61.1,2.2,70.3,2.2
		c22.7,0,76.8-1.1,92.5-2.2l-1.6,11.4c-14.1,1.6-28.7,3.8-41.1,7c6.5,23.8,36.2,108.7,56.8,165.6c15.1,41.7,48.7,132.6,73.6,180.2
		c15.7,3.2,31.4,5.4,47.6,7.6l1.6,11.4c-6.5-1.1-61.1-2.2-89.8-2.2c-15.7,0-76.8,1.1-91.4,2.2L4670.8,648.9z M4609.7,304.8h-1.1
		c-16.8,48.2-51.9,141.8-57.3,159.6l113.6,2.2C4653,430.8,4618.9,334.5,4609.7,304.8z"/>
	<path class="st0" d="M4853.7,712.7c1.1-7.6,8.7-67.6,8.7-88.7c0-14.1,3.2-72.5,1.6-85.5l12.4,3.2c-0.5,7,2.2,37.9,3.8,47.6
		c14.6,34.6,46.5,59,83.9,59c42.7,0,76.8-28.1,76.8-68.2c0-43.8-34.1-65.5-69.3-88.2c-53-34.6-95.2-64.9-95.2-126.1
		c0-42.2,31.4-95.2,111.5-95.2c31.9,0,60.1,6.5,73,9.7c3.8-13,6.5-29.2,9.7-43.8l12.4-1.6c-7.6,53.6-13,103.9-13,148.2l-12.4-5.4
		c0-18.4-1.1-31.4-2.2-41.1c-6-19.5-34.1-48.7-72-48.7c-46.5,0-66,29.8-66,54.1c0,35.2,36.8,54.1,77.9,80.1
		c44.9,28.1,90.4,58.4,90.4,126.6c0,75.2-59.5,117.9-133.1,117.9c-26,0-59.5-5.4-74.7-13.5c-2.7,10.3-8.1,36.2-11.9,56.3
		L4853.7,712.7z"/>
</g>
</svg>
