<?xml version="1.0" encoding="UTF-8"?>
<svg id="Capa_1" data-name="Capa 1" xmlns="http://www.w3.org/2000/svg" viewBox="0 0 5367.99 4962.96">
  <defs>
    <style>
      .cls-1 {
        fill: #fff;
      }

      .cls-2 {
        stroke: #422913;
        stroke-linejoin: round;
        stroke-width: 1.04px;
      }

      .cls-2, .cls-3 {
        fill: #422913;
      }
    </style>
  </defs>
  <g>
    <path class="cls-3" d="M3104.91,4926.91c-1822.85,177.94-2577.33-328.5-2840.28-956.98C25.45,3398.22-359.01,2106.65,740.84,999.89,1840.69-106.89,3151.75-95.04,3994.35,102.4c2343.08,549.03,1450.89,4596.05-889.43,4824.51"/>
    <path class="cls-1" d="M3529.07,4599.12c-1622.56,482.34-2394.48,160.83-2741.71-357.3-315.86-471.3-888.01-1563.64-81.92-2752.55C1511.53,300.37,2702.71,79.06,3501.13,107.39c2220.15,78.73,2111.09,3872.47,27.94,4491.73"/>
    <path class="cls-3" d="M1703.48,1370.4c21.85-11.87,425.01-148.38,598.13-206.02,173.14-57.65,603.15-176.49,603.15-176.49,0,0-.54-2.26,99.4-130.73,99.95-128.47,245.22-338.34,245.22-338.34,0,0,111.84-109.78,217.38-66.48,105.56,43.28,74.43,233.79,74.43,233.79l-54.96,356.85s18.14,164.55,175.22,256.49c157.06,91.95,605.53,310.44,505.7,967.67-99.85,657.2-840.22,1321-1457.08,1334.9-616.9,13.88-1539.12-503.71-1511.81-1153.4,27.3-649.7,153.51-727.57,153.51-727.57,0,0-137.54-90.79-65.88-301.95,71.67-211.18,113.2-144.82,193.57-114.59,44.91,16.9,103.96,45.57,140.56,60.26,25.88,10.37,54.23,12.53,81.38,6.1l2.08-.49Z"/>
    <path class="cls-1" d="M2367.21,2364.79s52.4-147.96,242.57-215.79c190.15-67.82,240.93-80.4,240.93-80.4,0,0,236.89-64.58,252.17,198.52,12.16,209.3-7.21,969.05-7.21,969.05,0,0,8.53,147.99-266.86,147.94-219-.05-529.31-129.47-529.31-129.47,0,0-126-53.77-102.52-210.88,23.49-157.13,170.23-678.97,170.23-678.97"/>
    <path class="cls-1" d="M3120.46,1684.54c3.42,5.92,6.06,13.99,11.44,19.33,24.52,24.25,19.36,52.07,7.54,78.27-19.34,42.94-40.02,84.85-70.21,122.56-18.78,23.45-37.26,14.23-57.04,13.42-18.9-.78-27.31-15.06-31.45-30.91-8.4-32.2-9.85-62.84,5.84-95.4,17.13-35.59,33.63-71,56.57-103.36,16.59-23.37,23.07-24.98,47.63-10.79,7.97,4.61,18.7,4.51,29.67,6.87m-90.55,179.76c67.96-46.93,85.54-105.98,43.98-139.42-37.08,44.22-52.33,87.9-43.98,139.42"/>
    <path class="cls-1" d="M2303.76,1752.63c20.43,8.68,27.07,17.03,18.45,31.64-6.21,10.5-2.87,18.92,4.19,27.69,49.51,61.47,48.41,129.58,26.11,200.53-4.99,15.89-14.79,20.38-30.96,18.2-36.27-4.89-70.17-41.43-67.53-76.67,3.12-41.56,4.72-83.71,13.47-124.18,5.71-26.31,23.07-50.09,36.27-77.21"/>
    <path class="cls-3" d="M2850.83,3225.59c5.63-.33,12.21-2.66,16.67-.54,7.31,3.47,15.88,8.56,19.18,15.28,4.92,10.05-2.62,16.6-12.48,19.69-8.58,2.69-17.15,7.69-25.76,7.79-41.82,.46-85.26,.94-119.37-26.8-36.16-29.43-78.46-37-121.5-45-32.05-5.94-64.21-11.19-96.12-17.87-22.91-4.8-31.19-13.93-27.66-26.9,3.57-13.04,16.49-18.7,36.44-15.59,8.89,1.39,17.64,4.14,26.59,4.85,52.12,4.21,83.49-20.83,91.51-72.52,3.22-20.78-9.42-36.47-35.62-39.49-51.24-5.87-83.41-41.19-116.69-74.18-11.49-11.35-10.46-29.85,1.04-40.3,24.61-22.36,41.62-53.74,75.93-64.97,37.38-12.26,73.89-27.4,111.79-37.53,39.82-10.63,74.63,7.66,97.91,40.68,11.96,17,29.1,31.18,46.06,43.69,37.2,27.43,63.56,82.96,15.94,130.72-5.4,5.4-12.03,12.39-18.75,13.27-28.55,3.68-55.45,16.85-86.21,8.68-29.95-7.97-36.72-1.5-45.19,29.47-5.89,21.57-11.44,43.27-16.67,65.02-3.78,15.76,3.52,25.56,17.77,32.05,26.54,12.06,51.95,27.34,79.46,36.5,27.28,9.11,56.56,12.35,84.98,18.14,.25-1.37,.48-2.74,.73-4.13"/>
  </g>
  <path class="cls-3" d="M2314.9,1993.56c46.82-68.05,42.2-129.49-8.55-145.95-18.88,54.52-17.58,100.78,8.55,145.95"/>
  <g>
    <path class="cls-2" d="M1206.88,4041.68c5.63-9.74,18.01-34.7,21.52-44.3,3.31-28.17-23-92.61-89.08-130.82-93.22-53.93-191.24-20.38-237.46,59.52-57.78,99.89-24.2,232.11,83.89,294.64,38.92,22.52,88.59,43.03,137.39,42.55l-19.91,17.87c-17.41,2.92-81.29-6-161.71-52.51-18.95-10.97-73.6-45.3-103.24-89.79-47.63-71.3-53.29-152.52-15.36-218.08,40.89-70.69,106.97-102.19,169.53-106.34,74-5.04,125.49,15.85,177.23,45.78,45.08,26.07,87.38,62.85,99.36,75.23,6.93-4.87,32.03-34.1,37.12-39.36l13.27,4.25c-40.27,51.9-74.16,103.39-102.82,151.75l-9.7-10.39Z"/>
    <path class="cls-2" d="M1324.2,4143.19c17.03-50.45,45.44-140.15,49.06-158.28-9.89-5.84-42.76-21.32-55.65-27.54l1.73-12.52c13.27,5.09,31.57,11.91,49.88,18.71,18.49,6.25,36.81,13.05,49.14,17.22,17.94,6.05,149.67,50.53,166.12,51.71,3.95-6.15,8.86-15.12,13.38-24.82l13.65,2.1c-6.78,10.83-43.4,95.26-50.39,112.25l-11.01-8.1c1.32-3.91,10.4-28.96,13.63-40.35-4.61-19.66-88.47-56.1-118.17-66.13-4.34,7.28-43.1,114.71-54.27,147.79l-3.79,11.21c48.21,16.28,103.91,30.72,119.06,30.2,5.65-7.46,9.98-14.74,13.74-22.21l12.16,2.85c-5.09,9.52-41.11,82.91-49.97,99.9l-9.13-8.08c4.54-11.58,10.01-25.97,13.79-37.17-14.35-14.84-56.93-32.97-105.14-49.23l-3.78,11.21c-11.55,34.18-50.56,157.15-54.37,173.97,56.06,18.91,110.26,32.22,140.96,26.36,12.8-17.55,21.47-33.98,28.99-45.17l14.02,.99c-9.41,14.93-50.51,95.97-62.22,123.24l-11.01-6.22c5.11-15.14,8.52-25.22,10.98-34.39-15.32-8.29-139-52.53-174.31-64.46-19.06-6.44-63.72-20.28-85.96-26.53l6.78-10.83c9.16,2.48,43.92,10.47,60.38,11.65,5.65-9.33,42.15-111.91,62.97-173.57l8.71-25.78Z"/>
    <path class="cls-2" d="M1691.26,4231.75c3.36-21.05,20.65-133.32,20.09-144.8-9.56-3.91-48.73-13.75-61.41-16.98l.2-12.54,126.3,19.53c55.51,8.85,124.95,20.53,162.16,42.64,29.02,17.2,44.76,42.49,39.63,74.62-5.87,36.81-51,79.35-100,97.29,4.1,15.65,73.77,183.73,124.29,257.68h-26.37c-37.92-25.23-164.74-229.38-172.13-243.14-22.49-1.79-46.72-3.86-56.66-5.43l-2.42,15.19c-6.06,37.97-19.23,128.14-21.77,155.3,9.47,4.51,47.38,14.74,60.05,17.97l.38,12.64c-14.42-3.5-73.24-14.08-100.12-18.36-23.96-3.83-85.49-12.44-99.13-13.41l4.3-11.89c8.28,.72,46.23,3.18,63.24,1.69,5.04-16.57,23.88-131.01,33.66-192.36l5.68-35.64Zm59.01,50.74c21.04,3.36,46.44,5.62,73.06,.27,26.61-5.35,72.39-25.61,81.61-83.45,5.96-37.4-20.66-88.37-121.74-104.5-5.57,23.68-23.41,128.09-30.03,169.57l-2.89,18.11Z"/>
    <path class="cls-2" d="M2015.65,4118.86c18.94,1.13,52.09,2.2,85.23,2.1,36.69-.12,89.35-1.47,102.36-2.68l-2.91,12.44c-12.43,1.21-45.55,4.87-55.61,8.46,4.21,20.11,121.06,292.55,136.5,311.44,13.52-27.27,119.93-249.52,131.57-312.3-11.26-2.32-35.52-5.21-54.47-8.1l-3-12.44c8.29,1.16,50.3,2.22,86.4,2.1,27.82-.09,52.08-1.35,66.27-2.58l-2.92,12.44c-11.23,2.41-20.7,4.8-36.07,8.4-12.4,7.14-204.07,403.64-211.7,422.6-19.04-33.07-173.41-381.14-202.54-421.29-7.7-2.36-17.77-5.28-36.71-8.18l-2.41-12.42Z"/>
    <path class="cls-2" d="M2575.48,4288.22c-7.41-52.73-22.23-145.63-27.13-163.47-11.45-.79-47.77,.12-62.08,.34l-4.07-11.97c14.14-1.38,33.56-3.52,52.97-5.64,19.33-2.72,38.75-4.85,51.64-6.64,18.75-2.63,156.43-21.95,171.68-28.27,.77-7.28,1.13-17.49,.82-28.21l13.14-4.24c-1.19,12.73,3.93,104.6,5.3,122.93l-13.47-2.29c-.57-4.1-3.68-30.54-5.92-42.19-12.92-15.51-104.23-10.46-135.27-6.1-.61,8.44,12.91,121.85,17.77,156.41l1.64,11.72c50.39-7.07,106.65-19.13,119.97-26.39,1.7-9.19,2.31-17.65,2.32-26l12.14-2.9c-.27,10.8,.44,92.54,.15,111.69l-11.79-3.11c-1.15-12.39-2.7-27.71-4.34-39.43-19.48-6.83-65.68-3.93-116.06,3.14l1.65,11.72c5.01,35.74,25.28,163.13,29.42,179.88,58.6-8.23,113.01-20.64,137.83-39.65,3.56-21.42,3.95-39.99,5.65-53.37l12.98-5.41c-1.72,17.56-2.11,108.43-.34,138.05l-12.63-.61c-2.22-15.82-3.71-26.36-5.6-35.65-17.41-.55-147.8,15.36-184.71,20.53-19.92,2.8-66.04,10.47-88.73,14.85l1.2-12.71c9.29-1.9,43.96-10.35,59.19-16.67,.86-10.88-12.51-118.93-21.55-183.37l-3.78-26.96Z"/>
    <path class="cls-2" d="M3266.8,4236.72c1.73,17.32,16.98,173.98,22.77,203.68l-14.22-.34c-2.44-10.98-9.34-44.69-12.34-55.52-7.95-2.1-121.63,26.39-174.09,40.95-24.51,6.82-104.43,30.83-154.7,46.64,20.12-38.13,161.06-417.46,170.12-455.61-39.09,9.63-193.76,63-206.42,83.72-1.59,16.4-1.44,61.19-2.17,71.83l-12.63,5.35c-2.66-58.22-23.99-150.55-29.08-175.53l13.91-.8c4.84,15.24,13.49,44.16,16.42,52.55,12.61-1.04,131.42-30.95,145.68-34.9,11.98-3.33,127.4-36.61,162.27-48.12-20.44,48.04-150.98,396.24-168.38,450.81,71.49-16.78,204.49-64.13,227.33-96.88,4.72-11.75,3.34-65.41,3.37-80.77l12.16-7.06Z"/>
    <path class="cls-2" d="M3588.75,4235.47c18.23-9.99,36.22-20.52,51.33-31.72-22.18-23.85-111.31-121.63-126.91-133.51-18.95,8.37-103.34,50.19-121.94,62.28,.1,9.02,16.07,124.25,29.08,168.32,15.2-2.19,34.02-7.93,49.9-13l7.18,10.42c-17.25,6.32-66.99,27.01-82.69,33.94-14.08,6.22-49.87,23.32-61.84,29.91l-3.39-12.09c14.97-8.56,30.02-18.43,43.2-28.14,4.42-42.73-16.53-381.54-18.04-405.47-13.34,2.02-32.17,7.74-45.87,11.85l-5.57-11.1c16.72-6.08,62.13-24.86,71.33-28.92,22.74-10.05,76.39-35.04,91.61-43.08l3.4,12.08c-13.36,7.84-27.02,16.47-38.04,25.22,17.02,20.96,84.35,92.79,130.03,140.54,33.57,34.99,107.32,111.09,153.26,147.74,17.13-3.69,33.78-8.46,50.99-13.48l6.64,10.66c-6.98,1.78-62.13,24.86-90.82,37.53-15.69,6.94-76.39,35.04-90.52,42.59l-2.32-12.57Zm-213.27-317.25l-1.08,.48c4.5,55.59,10.69,164.78,13.17,185.05l114.64-48.06c-27.69-30.48-104.37-111.76-126.72-137.47Z"/>
    <path class="cls-2" d="M3579.38,3800.55c27.14-19.05,73.47-49.85,110.88-76.99,21.88,9.79,202.87,70.02,217.11,73.47,21.94,5.5,163.06,50,187.65,53.08-35.8-55.08-149.47-228.91-176.16-248.27-11.21,4.46-40.09,17.58-54.63,25.61l-9.25-8.8c10.07-5.13,64.31-38.97,75.22-46.06,10.92-7.09,51.46-34.85,61.24-42.62l4.78,11.72c-5.81,5.18-21.09,20.76-33.19,31.45,6.62,23.22,49.6,94.8,58.93,111.31,13.67,24.29,145.12,235.29,155.04,257.07-23.91-4.22-265.52-75.18-285.31-80.67-11.79-2.92-180.88-56.78-209.5-65,4.96,10.9,180.19,267.54,198.26,281.21,9.05-2.36,48.53-23.06,58.6-28.2l8.26,9.46c-9.58,4.8-61.82,37.34-74.73,45.73-14.38,9.35-52.45,35.5-66.19,45.83l-5.29-11.38c12.61-11.02,27.52-22.82,36.68-33.72-5.11-26.33-180.54-308.23-191.19-324.61-13.02,4.94-38.95,18.26-58.45,29.52l-8.75-9.14Z"/>
    <path class="cls-2" d="M4445.08,3665.1c14.26-15.14,28.12-30.7,39.04-46-28.44-15.85-143.35-81.4-161.85-87.88-15.44,13.79-82.84,79.57-96.8,96.79,2.88,8.56,53.56,113.23,79.51,151.15,13.79-6.76,29.93-18.02,43.47-27.73l10.05,7.69c-14.47,11.34-55.41,46.33-68.2,57.76-11.47,10.25-40.25,37.55-49.6,47.51l-6.96-10.46c11.62-12.76,22.88-26.79,32.42-40.08-8.95-41.99-133.25-357.82-142.05-380.12-12.07,6.03-28.21,17.27-39.98,25.4l-8.72-8.81c14.03-10.95,51.44-42.79,58.94-49.49,18.53-16.55,61.87-56.87,73.88-69.22l6.95,10.44c-10.29,11.58-20.63,23.98-28.41,35.7,22.64,14.67,108.81,62.27,166.97,93.62,42.71,22.94,136.3,72.62,191.29,93.31,15.16-8.78,29.54-18.45,44.35-28.51l9.6,8.08c-6.08,3.84-51.43,42.79-74.82,63.69-12.79,11.43-61.87,56.87-72.99,68.38l-6.07-11.22Zm-300.6-236.07l-.88,.79c21.4,51.49,60.93,153.44,69.53,171.94l94.24-81.02c-35.73-20.45-133.7-74.14-162.89-91.7Z"/>
    <path class="cls-2" d="M4666.55,3548.25c-5.43-6.37-49.26-55.98-66.58-71.24-11.55-10.16-57.18-55.06-69.01-63.12l11.66-7.86c5.38,5.52,32.65,25.59,41.83,31.3,38.98,13.03,82.04,4.42,109.03-26.22,30.89-35.09,32.43-83.4-.44-112.34-35.98-31.67-78.39-19.34-122.45-6.88-66.75,18.5-122.13,31.25-172.32-12.95-34.64-30.49-55.49-94.59,2.38-160.33,23.07-26.2,48.74-44.6,60.78-52.92-7.92-12.49-19.29-26.45-28.94-39.67l7.66-11.38c38.51,44.93,75.9,85.74,112.32,117.81l-13.44,6.3c-15.1-13.31-26.55-21.8-35.32-27.95-20.29-9.19-64.62-7.21-91.98,23.88-33.63,38.2-23.28,75.69-3.3,93.29,28.87,25.42,71.01,8.9,122.05-6.08,55.55-16.54,113.27-31.95,169.23,17.32,61.74,54.36,53.81,134.1,.63,194.51-18.77,21.32-47.46,44.95-65.07,51.52,6.48,9.65,23.9,32.87,37.59,50.45l-6.33,12.56Z"/>
  </g>
</svg>